# xmcd CD database file
#
# Track frame offsets:
#	150
#	23979
#	45557
#	60844
#	76919
#	103696
#	115838
#	136583
#	157191
#	179071
#	196960
#	219758
#
# Disc length: 3159 seconds
#
# Revision: 0
# Processed by: cddbd v1.5.1PL0 Copyright (c) Steve Scherf et al.
# Submitted via: CD2WAV32(EN) R3.19
#
DISCID=980c550c
DTITLE=??????? - ???????????????
DYEAR=1900
DGENRE=
TTITLE0=??????
TTITLE1=?????
TTITLE2=???????????
TTITLE3=???????? (????????????????????)
TTITLE4=??????
TTITLE5=?????
TTITLE6=???????????
TTITLE7=?????
TTITLE8=????????????????????????
TTITLE9=??????????
TTITLE10=??? (???????????????)
TTITLE11=????????????
EXTD=
EXTT0=
EXTT1=
EXTT2=
EXTT3=
EXTT4=
EXTT5=
EXTT6=
EXTT7=
EXTT8=
EXTT9=
EXTT10=
EXTT11=
PLAYORDER=
